<mxfile host="65bd71144e">
    <diagram id="mxhz0sK2NCgJPXF47iWD" name="执行前">
        <mxGraphModel dx="1242" dy="562" grid="0" gridSize="10" guides="1" tooltips="1" connect="1" arrows="1" fold="1" page="1" pageScale="1" pageWidth="1169" pageHeight="1654" background="#ffffff" math="0" shadow="1">
            <root>
                <mxCell id="0"/>
                <mxCell id="1" parent="0"/>
                <mxCell id="8" style="edgeStyle=none;html=1;exitX=1;exitY=1;exitDx=0;exitDy=0;fontColor=#000000;" parent="1" source="2" edge="1">
                    <mxGeometry relative="1" as="geometry">
                        <mxPoint x="260" y="530" as="targetPoint"/>
                    </mxGeometry>
                </mxCell>
                <mxCell id="2" value="" style="rounded=0;whiteSpace=wrap;html=1;fillColor=#FFFFFF;strokeColor=#000000;" parent="1" vertex="1">
                    <mxGeometry x="50" y="40" width="210" height="470" as="geometry"/>
                </mxCell>
                <mxCell id="3" value="" style="rounded=0;whiteSpace=wrap;html=1;strokeColor=#000000;fillColor=#FFFFFF;" parent="1" vertex="1">
                    <mxGeometry x="300" y="40" width="669" height="471" as="geometry"/>
                </mxCell>
                <mxCell id="4" value="执行上下文栈（ECS）" style="text;html=1;align=center;verticalAlign=middle;resizable=0;points=[];autosize=1;strokeColor=none;fillColor=none;fontColor=#000000;" parent="1" vertex="1">
                    <mxGeometry x="85" y="10" width="140" height="30" as="geometry"/>
                </mxCell>
                <mxCell id="5" value="" style="rounded=0;whiteSpace=wrap;html=1;strokeColor=#000000;fontColor=#000000;fillColor=#FFFFFF;" parent="1" vertex="1">
                    <mxGeometry x="60" y="410" width="170" height="90" as="geometry"/>
                </mxCell>
                <mxCell id="6" value="全局执行上下文（GEC）" style="text;html=1;strokeColor=none;fillColor=none;align=center;verticalAlign=middle;whiteSpace=wrap;rounded=0;fontColor=#000000;" parent="1" vertex="1">
                    <mxGeometry x="60" y="370" width="145" height="30" as="geometry"/>
                </mxCell>
                <mxCell id="7" value="VO:GO&lt;br&gt;scope chain&lt;br&gt;this" style="rounded=0;whiteSpace=wrap;html=1;strokeColor=#0e8088;fillColor=#b0e3e6;fontColor=#000000;" parent="1" vertex="1">
                    <mxGeometry x="72.5" y="420" width="145" height="50" as="geometry"/>
                </mxCell>
                <mxCell id="11" value="Function Object(foo)&#10;0xa00&#10;" style="swimlane;strokeColor=#000000;fontColor=#000000;fillColor=#FFFFFF;startSize=50;" parent="1" vertex="1">
                    <mxGeometry x="530" y="60" width="200" height="200" as="geometry"/>
                </mxCell>
                <mxCell id="12" value="name&amp;nbsp;&lt;br&gt;length" style="text;html=1;strokeColor=none;fillColor=none;align=left;verticalAlign=top;whiteSpace=wrap;rounded=0;fontColor=#000000;" parent="1" vertex="1">
                    <mxGeometry x="547.5" y="120" width="165" height="130" as="geometry"/>
                </mxCell>
                <mxCell id="13" value="" style="endArrow=classic;html=1;fontColor=#000000;entryX=-0.004;entryY=0.22;entryDx=0;entryDy=0;strokeColor=#000000;entryPerimeter=0;" parent="1" target="11" edge="1">
                    <mxGeometry width="50" height="50" relative="1" as="geometry">
                        <mxPoint x="441" y="237" as="sourcePoint"/>
                        <mxPoint x="514" y="103" as="targetPoint"/>
                        <Array as="points">
                            <mxPoint x="441" y="240"/>
                        </Array>
                    </mxGeometry>
                </mxCell>
                <mxCell id="UE3A6txxdWsWjeW7fhDm-14" value="" style="endArrow=classic;html=1;strokeColor=#000000;fontColor=#00FF00;fillColor=default;" parent="1" edge="1">
                    <mxGeometry width="50" height="50" relative="1" as="geometry">
                        <mxPoint x="170" y="429" as="sourcePoint"/>
                        <mxPoint x="320" y="84" as="targetPoint"/>
                    </mxGeometry>
                </mxCell>
                <mxCell id="_QweY8apQex131UrhFpi-13" value="Global Object(window)" style="swimlane;strokeColor=#000000;fontColor=#000000;fillColor=#FFFFFF;" parent="1" vertex="1">
                    <mxGeometry x="314" y="60" width="206.5" height="261" as="geometry"/>
                </mxCell>
                <mxCell id="_QweY8apQex131UrhFpi-14" value="&lt;font style=&quot;font-size: 13px;&quot;&gt;Date&lt;br&gt;Array&lt;br&gt;String&lt;br&gt;Number&lt;br&gt;setTimeout&lt;br&gt;setInterval等&lt;br&gt;window&lt;/font&gt;&lt;br&gt;&lt;br&gt;&lt;b&gt;自己定义的变量:&lt;br&gt;&lt;/b&gt;foo:0xa00(内存地址)&lt;br&gt;message:undefined&lt;br&gt;num1:undefined&lt;br&gt;num2:undefined&lt;br&gt;result:undefined" style="text;html=1;strokeColor=none;fillColor=none;align=left;verticalAlign=top;whiteSpace=wrap;rounded=0;fontColor=#000000;" parent="_QweY8apQex131UrhFpi-13" vertex="1">
                    <mxGeometry x="15" y="30" width="179" height="223" as="geometry"/>
                </mxCell>
                <mxCell id="wB8Ox-92wr-dbIK4T_Y6-13" value="堆内存" style="text;html=1;align=center;verticalAlign=middle;resizable=0;points=[];autosize=1;strokeColor=none;fillColor=none;fontColor=#000000;" parent="1" vertex="1">
                    <mxGeometry x="519" y="11" width="54" height="26" as="geometry"/>
                </mxCell>
            </root>
        </mxGraphModel>
    </diagram>
    <diagram name="开始执行代码" id="jZe3_PMdirLGxmVEl82d">
        <mxGraphModel dx="1242" dy="562" grid="0" gridSize="10" guides="1" tooltips="1" connect="1" arrows="1" fold="1" page="1" pageScale="1" pageWidth="1169" pageHeight="1654" background="#ffffff" math="0" shadow="1">
            <root>
                <mxCell id="MUxZZFazQVOe84MmM24r-0"/>
                <mxCell id="MUxZZFazQVOe84MmM24r-1" parent="MUxZZFazQVOe84MmM24r-0"/>
                <mxCell id="MUxZZFazQVOe84MmM24r-2" style="edgeStyle=none;html=1;exitX=1;exitY=1;exitDx=0;exitDy=0;fontColor=#000000;" parent="MUxZZFazQVOe84MmM24r-1" source="MUxZZFazQVOe84MmM24r-3" edge="1">
                    <mxGeometry relative="1" as="geometry">
                        <mxPoint x="260" y="530" as="targetPoint"/>
                    </mxGeometry>
                </mxCell>
                <mxCell id="MUxZZFazQVOe84MmM24r-3" value="" style="rounded=0;whiteSpace=wrap;html=1;fillColor=#FFFFFF;strokeColor=#000000;" parent="MUxZZFazQVOe84MmM24r-1" vertex="1">
                    <mxGeometry x="50" y="40" width="210" height="470" as="geometry"/>
                </mxCell>
                <mxCell id="MUxZZFazQVOe84MmM24r-4" value="" style="rounded=0;whiteSpace=wrap;html=1;strokeColor=#000000;fillColor=#FFFFFF;" parent="MUxZZFazQVOe84MmM24r-1" vertex="1">
                    <mxGeometry x="300" y="40" width="660" height="470" as="geometry"/>
                </mxCell>
                <mxCell id="MUxZZFazQVOe84MmM24r-5" value="执行上下文栈（ECS）" style="text;html=1;align=center;verticalAlign=middle;resizable=0;points=[];autosize=1;strokeColor=none;fillColor=none;fontColor=#000000;" parent="MUxZZFazQVOe84MmM24r-1" vertex="1">
                    <mxGeometry x="85" y="10" width="140" height="30" as="geometry"/>
                </mxCell>
                <mxCell id="MUxZZFazQVOe84MmM24r-6" value="" style="rounded=0;whiteSpace=wrap;html=1;strokeColor=#000000;fontColor=#000000;fillColor=#FFFFFF;" parent="MUxZZFazQVOe84MmM24r-1" vertex="1">
                    <mxGeometry x="60" y="410" width="170" height="90" as="geometry"/>
                </mxCell>
                <mxCell id="MUxZZFazQVOe84MmM24r-7" value="全局执行上下文（GEC）" style="text;html=1;strokeColor=none;fillColor=none;align=center;verticalAlign=middle;whiteSpace=wrap;rounded=0;fontColor=#000000;" parent="MUxZZFazQVOe84MmM24r-1" vertex="1">
                    <mxGeometry x="60" y="370" width="145" height="30" as="geometry"/>
                </mxCell>
                <mxCell id="MUxZZFazQVOe84MmM24r-8" value="VO:GO&lt;br&gt;scope chain&lt;br&gt;this" style="rounded=0;whiteSpace=wrap;html=1;strokeColor=#0e8088;fillColor=#b0e3e6;fontColor=#000000;" parent="MUxZZFazQVOe84MmM24r-1" vertex="1">
                    <mxGeometry x="72.5" y="420" width="145" height="50" as="geometry"/>
                </mxCell>
                <mxCell id="MUxZZFazQVOe84MmM24r-11" value="Function Object(foo)&#10;0xa00&#10;" style="swimlane;strokeColor=#000000;fontColor=#000000;fillColor=#FFFFFF;startSize=50;" parent="MUxZZFazQVOe84MmM24r-1" vertex="1">
                    <mxGeometry x="530" y="60" width="200" height="200" as="geometry"/>
                </mxCell>
                <mxCell id="MUxZZFazQVOe84MmM24r-12" value="name&amp;nbsp;&lt;br&gt;length" style="text;html=1;strokeColor=none;fillColor=none;align=left;verticalAlign=top;whiteSpace=wrap;rounded=0;fontColor=#000000;" parent="MUxZZFazQVOe84MmM24r-1" vertex="1">
                    <mxGeometry x="547.5" y="120" width="165" height="130" as="geometry"/>
                </mxCell>
                <mxCell id="MUxZZFazQVOe84MmM24r-13" value="" style="endArrow=classic;html=1;fontColor=#000000;entryX=-0.004;entryY=0.22;entryDx=0;entryDy=0;strokeColor=#000000;entryPerimeter=0;" parent="MUxZZFazQVOe84MmM24r-1" target="MUxZZFazQVOe84MmM24r-11" edge="1">
                    <mxGeometry width="50" height="50" relative="1" as="geometry">
                        <mxPoint x="448" y="237" as="sourcePoint"/>
                        <mxPoint x="514" y="103" as="targetPoint"/>
                        <Array as="points">
                            <mxPoint x="448" y="242"/>
                        </Array>
                    </mxGeometry>
                </mxCell>
                <mxCell id="XfIQVglJfHowh8kcPb2X-0" value="" style="endArrow=classic;html=1;strokeColor=#000000;fontColor=#00FF00;fillColor=default;entryX=0.006;entryY=0.112;entryDx=0;entryDy=0;entryPerimeter=0;exitX=0.7;exitY=0.22;exitDx=0;exitDy=0;exitPerimeter=0;" parent="MUxZZFazQVOe84MmM24r-1" source="MUxZZFazQVOe84MmM24r-8" edge="1">
                    <mxGeometry width="50" height="50" relative="1" as="geometry">
                        <mxPoint x="445" y="315" as="sourcePoint"/>
                        <mxPoint x="321.20000000000005" y="82.39999999999998" as="targetPoint"/>
                    </mxGeometry>
                </mxCell>
                <mxCell id="2ciLRfqrm-FKG7QALBEU-0" value="Global Object(window)" style="swimlane;strokeColor=#000000;fontColor=#000000;fillColor=#FFFFFF;" parent="MUxZZFazQVOe84MmM24r-1" vertex="1">
                    <mxGeometry x="315" y="60" width="206.5" height="261" as="geometry"/>
                </mxCell>
                <mxCell id="2ciLRfqrm-FKG7QALBEU-1" value="&lt;font style=&quot;font-size: 13px;&quot;&gt;Date&lt;br&gt;Array&lt;br&gt;String&lt;br&gt;Number&lt;br&gt;setTimeout&lt;br&gt;setInterval等&lt;br&gt;window&lt;/font&gt;&lt;br&gt;&lt;br&gt;&lt;b&gt;自己定义的变量:&lt;br&gt;&lt;/b&gt;foo:0xa00(内存地址)&lt;br&gt;message: &lt;font color=&quot;#00ff00&quot;&gt;'&lt;/font&gt;&lt;span style=&quot;color: rgb(0, 255, 0);&quot;&gt;Global Message&lt;/span&gt;&lt;font color=&quot;#00ff00&quot;&gt;'&lt;/font&gt;&lt;br&gt;num1:&lt;font color=&quot;#00ff00&quot;&gt;10&lt;/font&gt;&lt;br&gt;num2:&lt;font color=&quot;#00ff00&quot;&gt;20&lt;/font&gt;&lt;br&gt;result:&lt;font color=&quot;#00ff00&quot;&gt;30&lt;/font&gt;" style="text;html=1;strokeColor=none;fillColor=none;align=left;verticalAlign=top;whiteSpace=wrap;rounded=0;fontColor=#000000;" parent="2ciLRfqrm-FKG7QALBEU-0" vertex="1">
                    <mxGeometry x="15" y="30" width="179" height="223" as="geometry"/>
                </mxCell>
                <mxCell id="GsDra7z3XMgoL2IrWqb7-0" value="堆内存" style="text;html=1;align=center;verticalAlign=middle;resizable=0;points=[];autosize=1;strokeColor=none;fillColor=none;fontColor=#000000;" parent="MUxZZFazQVOe84MmM24r-1" vertex="1">
                    <mxGeometry x="519" y="11" width="54" height="26" as="geometry"/>
                </mxCell>
            </root>
        </mxGraphModel>
    </diagram>
</mxfile>